# AST/ASF file generated using VICON BodyLanguage
# -----------------------------------------------
:version 1.10
:name VICON
:units
  mass 1.0
  length 0.45
  angle deg
:documentation
   .ast/.asf automatically generated from VICON data using
   VICON BodyBuilder and BodyLanguage model FoxedUp or BRILLIANT.MOD
:root
   order TX TY TZ RX RY RZ
   axis XYZ
   position 0 0 0  
   orientation 0 0 0 
:bonedata
  begin
     id 1 
     name lhipjoint
     direction 0.57768 -0.667037 0.470475 
     length 2.36008 
     axis 0 0 0  XYZ
  end
  begin
     id 2 
     name lfemur
     direction 0.34202 -0.939693 0  
     length 6.97235  
     axis 0 0 20  XYZ
    dof rx ry rz
    limits (-160.0 20.0)
           (-70.0 70.0)
           (-60.0 70.0)
  end
  begin
     id 3 
     name ltibia
     direction 0.34202 -0.939693 0   
     length 6.93428   
     axis 0 0 20   XYZ
    dof rx
    limits (-10.0 170.0)
  end
  begin
     id 4 
     name lfoot
     direction 0.133018 -0.365463 0.921272   
     length 2.18603   
     axis -90 7.62852e-016 20   XYZ
    dof rx rz
    limits (-45.0 90.0)
           (-70.0 20.0)
  end
  begin
     id 5 
     name ltoes
     direction 1.53519e-011 -4.22055e-011 1   
     length 1.07924   
     axis -90 7.62852e-016 20   XYZ
    dof rx
    limits (-90.0 20.0)
  end
  begin
     id 6 
     name rhipjoint
     direction -0.577712 -0.667019 0.470462   
     length 2.36015  
     axis 0 0 0  XYZ 
  end
  begin
     id 7 
     name rfemur
     direction -0.34202 -0.939693 0   
     length 6.71195   
     axis 0 0 -20   XYZ
    dof rx ry rz
    limits (-160.0 20.0)
           (-70.0 70.0)
           (-70.0 60.0)
  end
  begin
     id 8 
     name rtibia
     direction -0.34202 -0.939693 0   
     length 7.04592   
     axis 0 0 -20   XYZ
    dof rx
    limits (-10.0 170.0)
 end
 begin
     id 9 
     name rfoot
     direction -0.113796 -0.312651 0.943027   
     length 2.03846  
     axis -90 -7.62852e-016 -20   XYZ
    dof rx rz
    limits (-45.0 90.0)
           (-20.0 70.0)
  end
  begin
     id 10 
     name rtoes
     direction -1.53586e-011 -4.218e-011 1   
     length 1.01562   
     axis -90 -7.62852e-016 -20   XYZ
    dof rx
    limits (-90.0 20.0)
  end
  begin
     id 11 
     name lowerback
     direction -0.0417299 0.991937 -0.119667   
     length 2.05257   
     axis 0 0 0   XYZ
    dof rx ry rz
    limits (-20.0 45.0)
           (-30.0 30.0)
           (-30.0 30.0)
  end
  begin
     id 12 
     name upperback
     direction -0.00017666 0.999999 0.00105178   
     length 2.05693   
     axis 0 0 0   XYZ
    dof rx ry rz
    limits (-20.0 45.0)
           (-30.0 30.0)
           (-30.0 30.0)
  end
  begin
     id 13 
     name thorax
     direction 0.0185169 0.998203 0.0569866   
     length 2.0932   
     axis 0 0 0   XYZ
    dof rx ry rz
    limits (-20.0 45.0)
           (-30.0 30.0)
           (-30.0 30.0)
  end
  begin
     id 14 
     name lowerneck
     direction -0.0212406 0.982645 0.184277   
     length 1.72509   
     axis 0 0 0   XYZ
    dof rx ry rz
    limits (-20.0 45.0)
           (-30.0 30.0)
           (-30.0 30.0)
  end
  begin
     id 15 
     name upperneck
     direction 0.00528579 0.965323 -0.261004   
     length 1.76294   
     axis 0 0 0   XYZ
    dof rx ry rz
    limits (-20.0 45.0)
           (-30.0 30.0)
           (-30.0 30.0)
  end
  begin
     id 16
     name head
     direction 0.00695421 0.994078 -0.108445  
     length 1.78678  
     axis 0 0 0   XYZ
    dof rx ry rz
    limits (-20.0 45.0)
           (-30.0 30.0)
           (-30.0 30.0)
  end
  begin
     id 17 
     name lclavicle
     direction 0.97277 0.211305 -0.095232  
     length 3.84823  
     axis 0 0 0   XYZ
    dof ry rz
    limits (-20.0 10.0)
           (0.0 20.0)
  end
  begin
     id 18 
     name lhumerus
     direction 1 -4.48957e-011 -1.98313e-027   
     length 4.97185   
     axis 180 -30 -90   XYZ
    dof rx ry rz
    limits (-60.0 90.0)
           (-90.0 90.0)
           (-90.0 90.0)
  end
  begin
     id 19
     name lradius
     direction 1 -4.4898e-011 7.31063e-027   
     length 3.35811   
     axis 180 -30 -90   XYZ
    dof rx
    limits (-10.0 170.0)
  end
  begin
     id 20
     name lwrist
     direction 1 -4.48938e-011 9.95048e-027   
     length 1.67905   
     axis -8.75986e-015 90 90   XYZ
    dof ry
    limits (-180.0 0.0)
 end
  begin
     id 21 
     name lhand
     direction 1 -4.4901e-011 1.9901e-026   
     length 0.622776   
     axis -1.26985e-014 90 90   XYZ
    dof rx rz
    limits (-90.0 90.0)
           (-45.0 45.0)
  end
  begin
     id 22 
     name lfingers
     direction 1 -4.48961e-011 3.98019e-026   
     length 0.502098   
     axis -2.5397e-014 90 90   XYZ
    dof rx
    limits (0.0 90.0)
  end
  begin
     id 23
     name lthumb
     direction 0.707107 -6.34933e-011 0.707107   
     length 0.720915   
     axis -90 45 2.85299e-015   XYZ
    dof rx rz
    limits (-45.0 45.0)
           (-45.0 45.0)
  end
  begin
     id 24 
     name rclavicle
     direction -0.990867 0.133739 -0.0172226   
     length 3.78845  
     axis 0 0 0   XYZ 
    dof ry rz
    limits (-10.0 20.0)
           (-20.0 0.0)
  end
  begin
     id 25 
     name rhumerus
     direction -1 -4.48972e-011 -1.99267e-027  
     length 4.96493   
     axis 180 30 90   XYZ
    dof rx ry rz
    limits (-90.0 60.0)
           (-90.0 90.0)
           (-90.0 90.0)
  end
  begin
     id 26 
     name rradius
     direction -1 -4.48969e-011 8.96093e-027   
     length 3.34929   
     axis 180 30 90   XYZ
    dof rx
    limits (-10.0 170.0)
  end
  begin
     id 27 
     name rwrist
     direction -1 -4.48953e-011 9.95048e-027   
     length 1.67464   
     axis -8.75986e-015 -90 -90   XYZ
    dof ry
    limits (-180.0 0.0)
  end
  begin
     id 28
     name rhand
     direction -1 -4.49001e-011 1.9901e-026   
     length 0.638041   
     axis -1.26985e-014 -90 -90   XYZ
    dof rx rz
    limits (-90.0 90.0)
           (-45.0 45.0)
  end
  begin
     id 29
     name rfingers
     direction -1 -4.48967e-011 3.98019e-026   
     length 0.514405   
     axis -2.5397e-014 -90 -90   XYZ
    dof rx
    limits (0.0 90.0)
  end
  begin
     id 30
     name rthumb
     direction -0.707107 -6.34904e-011 0.707107   
     length 0.738586   
     axis -90 -45 -2.85299e-015   XYZ
    dof rx rz
    limits (-45.0 45.0)
           (-45.0 45.0)
  end
:hierarchy
  begin
    root lhipjoint rhipjoint lowerback
    lhipjoint lfemur
    lfemur ltibia
    ltibia lfoot
    lfoot ltoes
    rhipjoint rfemur
    rfemur rtibia
    rtibia rfoot
    rfoot rtoes
    lowerback upperback
    upperback thorax
    thorax lowerneck lclavicle rclavicle
    lowerneck upperneck
    upperneck head
    lclavicle lhumerus
    lhumerus lradius
    lradius lwrist
    lwrist lhand lthumb
    lhand lfingers
    rclavicle rhumerus
    rhumerus rradius
    rradius rwrist
    rwrist rhand rthumb
    rhand rfingers
  end

#!OML:ASF E:\Mandelcareful walks\Project 1\Capture day 1\Session 1\Subject1.ASF
:FULLY-SPECIFIED
:DEGREES
16
root -4.10646 16.7744 -0.146304 150.152 74.2223 145.846
lowerback -7.01319 1.52333 -10.4333
upperback 1.86317 3.15803 -1.72538
thorax 5.47262 1.26292 4.38741
lowerneck -16.5889 7.31737 1.83325
upperneck 28.7659 12.0814 -3.4939
head 12.6557 5.40808 0.342258
rclavicle 9.72802e-015 -3.05134e-014
rhumerus -30.5514 -5.1659 -84.6558
rradius 28.7985
rwrist -9.06639
rhand -9.45333 -32.4578
rfingers 7.12502
rthumb 16.51 -61.7754
lclavicle 9.72802e-015 -3.05134e-014
lhumerus -26.7443 15.0186 85.4948
lradius 21.7826
lwrist 1.22284
lhand -19.8906 -10.9338
lfingers 7.12502
lthumb 6.44541 18.9481
rfemur 0.493102 0.357461 4.18379
rtibia 16.3536
rfoot -25.0149 -29.4327
rtoes 7.52476
lfemur -2.00696 -7.81388 -23.8567
ltibia 13.126
lfoot -16.2908 18.8494
ltoes -0.514954
17
root -4.09953 16.7747 -0.151738 149.474 74.6121 145.285
lowerback -6.97435 1.47873 -10.399
upperback 1.78899 3.08379 -1.72587
thorax 5.38354 1.23439 4.35719
lowerneck -17.1476 6.24923 0.730103
upperneck 29.0437 10.619 -2.77185
head 12.7161 4.7126 0.577001
rclavicle 1.54928e-014 -2.49475e-014
rhumerus -30.5797 -4.75414 -84.9304
rradius 29.0271
rwrist -9.81035
rhand -7.90303 -35.6636
rfingers 7.12502
rthumb 18.0021 -64.8504
lclavicle 1.54928e-014 -2.49475e-014
lhumerus -26.9506 15.1036 85.3652
lradius 21.7176
lwrist 0.946928
lhand -19.6631 -11.0135
lfingers 7.12502
lthumb 6.66503 18.8616
rfemur 0.560112 0.509265 4.23468
rtibia 16.2544
rfoot -24.948 -29.0995
rtoes 7.23261
lfemur -1.82963 -7.60487 -23.8297
ltibia 13.1956
lfoot -16.3833 19.0439
ltoes -0.525732
18
root -4.09269 16.7773 -0.157293 148.58 75.0869 144.435
lowerback -7.09175 1.46377 -10.4176
upperback 1.76988 3.07521 -1.68161
thorax 5.42805 1.22615 4.41804
lowerneck -17.4988 5.25504 -0.220722
upperneck 29.0707 9.2741 -2.27477
head 12.6888 4.06551 0.712177
rclavicle -6.25116e-014 2.68359e-015
rhumerus -30.5543 -4.6686 -84.9674
rradius 29.2107
rwrist -9.83134
rhand -7.90266 -35.5843
rfingers 7.12502
rthumb 18.0025 -64.7712
lclavicle -6.25116e-014 2.68359e-015
lhumerus -27.0469 15.1115 85.383
lradius 21.6827
lwrist 0.802453
lhand -19.4753 -10.8488
lfingers 7.12502
lthumb 6.8463 19.0205
rfemur 0.50594 0.810875 4.28472
rtibia 16.1422
rfoot -24.9139 -28.8704
rtoes 7.13449
lfemur -1.75011 -7.41759 -23.8105
ltibia 13.3311
lfoot -16.541 19.348
ltoes -0.597558
19
root -4.08296 16.7807 -0.16307 147.918 75.4467 143.73
lowerback -7.36088 1.39104 -10.4571
upperback 1.77764 3.01443 -1.6405
thorax 5.59554 1.18416 4.48897
lowerneck -17.7196 4.33721 -1.00976
upperneck 28.9875 8.02904 -1.90239
head 12.6288 3.46768 0.786255
rclavicle 1.94685e-014 -2.44505e-014
rhumerus -30.5024 -4.75904 -84.9477
rradius 29.3939
rwrist -9.62481
rhand -9.54312 -33.3985
rfingers 7.12502
rthumb 16.4236 -62.7232
lclavicle 1.94685e-014 -2.44505e-014
lhumerus -27.0798 15.3123 85.3478
lradius 21.5338
lwrist 0.450028
lhand -19.3429 -11.1825
lfingers 7.12502
lthumb 6.97411 18.6826
rfemur 0.401216 0.938852 4.30929
rtibia 16.0561
rfoot -24.6131 -28.7923
rtoes 6.84912
lfemur -1.77159 -7.19452 -23.7758
ltibia 13.456
lfoot -16.547 19.4903
ltoes -0.901809
20
root -4.07021 16.7763 -0.16743 147.719 75.4894 143.633
lowerback -7.44909 1.17768 -10.5916
upperback 1.81865 2.75398 -1.57885
thorax 5.72208 1.04162 4.60569
lowerneck -17.9653 3.49799 -1.85103
upperneck 28.9969 6.90562 -1.43274
head 12.623 2.92913 0.930244
rclavicle -2.68235e-014 -1.42131e-014
rhumerus -30.4126 -4.53495 -85.0077
rradius 29.4575
rwrist -9.69822
rhand -10.65 -31.7627
rfingers 7.12502
rthumb 15.3576 -61.1724
lclavicle -2.68235e-014 -1.42131e-014
lhumerus -27.1329 15.61 85.2868
lradius 21.3404
lwrist 0.0757017
lhand -19.369 -11.45
lfingers 7.12502
lthumb 6.94899 18.4159
rfemur 0.597879 0.940168 4.32144
rtibia 15.9685
rfoot -24.4499 -28.8549
rtoes 6.16036
lfemur -1.64247 -7.0342 -23.7613
ltibia 13.5544
lfoot -16.422 19.3585
ltoes -1.51807
21
root -4.06205 16.7732 -0.174173 147.157 75.6368 143.184
lowerback -7.43528 1.01156 -10.6901
upperback 1.86308 2.54012 -1.52536
thorax 5.78982 0.926415 4.69415
lowerneck -18.2224 2.71872 -2.83229
upperneck 28.9936 5.846 -0.735744
head 12.6179 2.43344 1.19501
rclavicle -3.23646e-015 2.55438e-014
rhumerus -30.3187 -4.14067 -85.1034
rradius 29.4922
rwrist -9.87224
rhand -10.4879 -31.0165
rfingers 7.12502
rthumb 15.5137 -60.4142
lclavicle -3.23646e-015 2.55438e-014
lhumerus -27.1181 15.7096 85.333
lradius 21.2341
lwrist -0.02633
lhand -19.5388 -11.29
lfingers 7.12502
lthumb 6.78506 18.5813
rfemur 0.728925 0.930035 4.28281
rtibia 15.8944
rfoot -24.2145 -28.824
rtoes 5.11169
lfemur -1.48548 -6.96257 -23.796
ltibia 13.6386
lfoot -16.4205 19.4417
ltoes -2.22463
22
root -4.05589 16.7775 -0.184206 146.425 75.9901 142.414
lowerback -7.53067 0.931611 -10.66
upperback 1.82692 2.43768 -1.49848
thorax 5.82146 0.875489 4.69741
lowerneck -18.345 2.0395 -3.63286
upperneck 28.9628 4.8935 -0.0880066
head 12.5994 2.00279 1.42582
rclavicle -2.41461e-014 -2.03754e-014
rhumerus -30.3788 -3.92252 -85.164
rradius 29.5829
rwrist -9.92565
rhand -10.0983 -30.9622
rfingers 7.12502
rthumb 15.8889 -60.3304
lclavicle -2.41461e-014 -2.03754e-014
lhumerus -27.0871 15.8074 85.3573
lradius 21.0871
lwrist -0.250888
lhand -19.6861 -11.1101
lfingers 7.12502
lthumb 6.64285 18.7657
rfemur 0.596022 0.783513 4.23305
rtibia 15.8447
rfoot -23.8242 -28.4713
rtoes 4.37176
lfemur -1.48014 -6.85876 -23.7995
ltibia 13.7114
lfoot -16.5121 19.7106
ltoes -3.25664
